<mxfile host="app.diagrams.net" modified="2021-12-21T12:49:36.168Z" agent="5.0 (Windows NT 6.1; Win64; x64) AppleWebKit/537.36 (KHTML, like Gecko) Chrome/96.0.4664.110 Safari/537.36" etag="1pGsmVXEHaEe6h3V5nQA" version="16.0.0" type="github">
  <diagram id="M1IxGESKzYjSux4xkQBq" name="Page-1">
    <mxGraphModel dx="1185" dy="662" grid="1" gridSize="10" guides="1" tooltips="1" connect="1" arrows="1" fold="1" page="1" pageScale="1" pageWidth="827" pageHeight="1169" math="0" shadow="0">
      <root>
        <mxCell id="0" />
        <mxCell id="1" parent="0" />
        <mxCell id="IkuHn_goo6lVUAqrZASD-10" value="" style="edgeStyle=orthogonalEdgeStyle;rounded=0;orthogonalLoop=1;jettySize=auto;html=1;" edge="1" parent="1" source="IkuHn_goo6lVUAqrZASD-1" target="IkuHn_goo6lVUAqrZASD-2">
          <mxGeometry relative="1" as="geometry" />
        </mxCell>
        <mxCell id="IkuHn_goo6lVUAqrZASD-1" value="&lt;font style=&quot;font-size: 15px&quot;&gt;Начало&lt;/font&gt;" style="ellipse;whiteSpace=wrap;html=1;" vertex="1" parent="1">
          <mxGeometry x="235" y="30" width="120" height="70" as="geometry" />
        </mxCell>
        <mxCell id="IkuHn_goo6lVUAqrZASD-25" value="" style="edgeStyle=orthogonalEdgeStyle;rounded=0;orthogonalLoop=1;jettySize=auto;html=1;fontSize=21;" edge="1" parent="1" source="IkuHn_goo6lVUAqrZASD-2" target="IkuHn_goo6lVUAqrZASD-24">
          <mxGeometry relative="1" as="geometry" />
        </mxCell>
        <mxCell id="IkuHn_goo6lVUAqrZASD-2" value="&lt;font style=&quot;font-size: 13px&quot;&gt;Ввод массива А из N элементов&lt;/font&gt;" style="shape=parallelogram;perimeter=parallelogramPerimeter;whiteSpace=wrap;html=1;fixedSize=1;" vertex="1" parent="1">
          <mxGeometry x="212.5" y="140" width="165" height="60" as="geometry" />
        </mxCell>
        <mxCell id="IkuHn_goo6lVUAqrZASD-7" value="" style="edgeStyle=orthogonalEdgeStyle;rounded=0;orthogonalLoop=1;jettySize=auto;html=1;" edge="1" parent="1" source="IkuHn_goo6lVUAqrZASD-4" target="IkuHn_goo6lVUAqrZASD-6">
          <mxGeometry relative="1" as="geometry" />
        </mxCell>
        <mxCell id="IkuHn_goo6lVUAqrZASD-17" value="" style="edgeStyle=orthogonalEdgeStyle;rounded=0;orthogonalLoop=1;jettySize=auto;html=1;" edge="1" parent="1" source="IkuHn_goo6lVUAqrZASD-4" target="IkuHn_goo6lVUAqrZASD-11">
          <mxGeometry relative="1" as="geometry" />
        </mxCell>
        <mxCell id="IkuHn_goo6lVUAqrZASD-4" value="&lt;font style=&quot;font-size: 15px&quot;&gt;A [ j - 1 ] &amp;gt; A [ j ]&lt;/font&gt;" style="rhombus;whiteSpace=wrap;html=1;" vertex="1" parent="1">
          <mxGeometry x="210" y="430" width="170" height="80" as="geometry" />
        </mxCell>
        <mxCell id="IkuHn_goo6lVUAqrZASD-8" value="" style="edgeStyle=orthogonalEdgeStyle;rounded=0;orthogonalLoop=1;jettySize=auto;html=1;" edge="1" parent="1" source="IkuHn_goo6lVUAqrZASD-5" target="IkuHn_goo6lVUAqrZASD-4">
          <mxGeometry relative="1" as="geometry" />
        </mxCell>
        <mxCell id="IkuHn_goo6lVUAqrZASD-5" value="&lt;font style=&quot;font-size: 18px&quot;&gt;j = i + 0&lt;/font&gt;" style="ellipse;whiteSpace=wrap;html=1;aspect=fixed;" vertex="1" parent="1">
          <mxGeometry x="260" y="330" width="70" height="70" as="geometry" />
        </mxCell>
        <mxCell id="IkuHn_goo6lVUAqrZASD-6" value="&lt;font style=&quot;font-size: 14px&quot;&gt;Поменять A [ j + 1 ] и A [ j ] местами&lt;/font&gt;" style="rounded=0;whiteSpace=wrap;html=1;" vertex="1" parent="1">
          <mxGeometry x="430" y="435" width="250" height="70" as="geometry" />
        </mxCell>
        <mxCell id="IkuHn_goo6lVUAqrZASD-16" value="" style="edgeStyle=orthogonalEdgeStyle;rounded=0;orthogonalLoop=1;jettySize=auto;html=1;" edge="1" parent="1" source="IkuHn_goo6lVUAqrZASD-11" target="IkuHn_goo6lVUAqrZASD-12">
          <mxGeometry relative="1" as="geometry" />
        </mxCell>
        <mxCell id="IkuHn_goo6lVUAqrZASD-22" value="" style="edgeStyle=orthogonalEdgeStyle;rounded=0;orthogonalLoop=1;jettySize=auto;html=1;" edge="1" parent="1" source="IkuHn_goo6lVUAqrZASD-11" target="IkuHn_goo6lVUAqrZASD-19">
          <mxGeometry relative="1" as="geometry" />
        </mxCell>
        <mxCell id="IkuHn_goo6lVUAqrZASD-11" value="&lt;font style=&quot;font-size: 13px&quot;&gt;j &amp;lt; N&lt;/font&gt;" style="rhombus;whiteSpace=wrap;html=1;" vertex="1" parent="1">
          <mxGeometry x="255" y="540" width="80" height="80" as="geometry" />
        </mxCell>
        <mxCell id="IkuHn_goo6lVUAqrZASD-15" value="" style="edgeStyle=orthogonalEdgeStyle;rounded=0;orthogonalLoop=1;jettySize=auto;html=1;" edge="1" parent="1" source="IkuHn_goo6lVUAqrZASD-12" target="IkuHn_goo6lVUAqrZASD-13">
          <mxGeometry relative="1" as="geometry" />
        </mxCell>
        <mxCell id="IkuHn_goo6lVUAqrZASD-21" value="" style="edgeStyle=orthogonalEdgeStyle;rounded=0;orthogonalLoop=1;jettySize=auto;html=1;" edge="1" parent="1" source="IkuHn_goo6lVUAqrZASD-12" target="IkuHn_goo6lVUAqrZASD-20">
          <mxGeometry relative="1" as="geometry" />
        </mxCell>
        <mxCell id="IkuHn_goo6lVUAqrZASD-12" value="&lt;font style=&quot;font-size: 14px&quot;&gt;i &amp;lt; N - 1&lt;/font&gt;" style="rhombus;whiteSpace=wrap;html=1;" vertex="1" parent="1">
          <mxGeometry x="255" y="650" width="80" height="80" as="geometry" />
        </mxCell>
        <mxCell id="IkuHn_goo6lVUAqrZASD-18" value="" style="edgeStyle=orthogonalEdgeStyle;rounded=0;orthogonalLoop=1;jettySize=auto;html=1;" edge="1" parent="1" source="IkuHn_goo6lVUAqrZASD-13" target="IkuHn_goo6lVUAqrZASD-14">
          <mxGeometry relative="1" as="geometry" />
        </mxCell>
        <mxCell id="IkuHn_goo6lVUAqrZASD-13" value="&lt;font style=&quot;font-size: 14px&quot;&gt;Вывод массива А&lt;/font&gt;" style="shape=parallelogram;perimeter=parallelogramPerimeter;whiteSpace=wrap;html=1;fixedSize=1;" vertex="1" parent="1">
          <mxGeometry x="212.5" y="760" width="165" height="60" as="geometry" />
        </mxCell>
        <mxCell id="IkuHn_goo6lVUAqrZASD-14" value="&lt;font style=&quot;font-size: 14px&quot;&gt;Конец&lt;/font&gt;" style="ellipse;whiteSpace=wrap;html=1;" vertex="1" parent="1">
          <mxGeometry x="235" y="850" width="120" height="70" as="geometry" />
        </mxCell>
        <mxCell id="IkuHn_goo6lVUAqrZASD-19" value="&lt;font style=&quot;font-size: 13px&quot;&gt;j = j + 1&lt;/font&gt;" style="rounded=0;whiteSpace=wrap;html=1;" vertex="1" parent="1">
          <mxGeometry x="120" y="550" width="80" height="60" as="geometry" />
        </mxCell>
        <mxCell id="IkuHn_goo6lVUAqrZASD-20" value="&lt;span style=&quot;font-size: 13px&quot;&gt;i = i + 1&lt;/span&gt;" style="rounded=0;whiteSpace=wrap;html=1;" vertex="1" parent="1">
          <mxGeometry x="120" y="660" width="80" height="60" as="geometry" />
        </mxCell>
        <mxCell id="IkuHn_goo6lVUAqrZASD-26" value="" style="edgeStyle=orthogonalEdgeStyle;rounded=0;orthogonalLoop=1;jettySize=auto;html=1;fontSize=21;" edge="1" parent="1" source="IkuHn_goo6lVUAqrZASD-24" target="IkuHn_goo6lVUAqrZASD-5">
          <mxGeometry relative="1" as="geometry" />
        </mxCell>
        <mxCell id="IkuHn_goo6lVUAqrZASD-24" value="&lt;font style=&quot;font-size: 21px&quot;&gt;i = 0&lt;/font&gt;" style="ellipse;whiteSpace=wrap;html=1;aspect=fixed;" vertex="1" parent="1">
          <mxGeometry x="260" y="230" width="70" height="70" as="geometry" />
        </mxCell>
        <mxCell id="IkuHn_goo6lVUAqrZASD-27" value="Да" style="text;html=1;align=center;verticalAlign=middle;resizable=0;points=[];autosize=1;strokeColor=none;fillColor=none;fontSize=13;" vertex="1" parent="1">
          <mxGeometry x="375" y="440" width="30" height="20" as="geometry" />
        </mxCell>
        <mxCell id="IkuHn_goo6lVUAqrZASD-29" value="Да" style="text;html=1;align=center;verticalAlign=middle;resizable=0;points=[];autosize=1;strokeColor=none;fillColor=none;fontSize=13;" vertex="1" parent="1">
          <mxGeometry x="212.5" y="550" width="30" height="20" as="geometry" />
        </mxCell>
        <mxCell id="IkuHn_goo6lVUAqrZASD-30" value="Да" style="text;html=1;align=center;verticalAlign=middle;resizable=0;points=[];autosize=1;strokeColor=none;fillColor=none;fontSize=13;" vertex="1" parent="1">
          <mxGeometry x="212.5" y="660" width="30" height="20" as="geometry" />
        </mxCell>
        <mxCell id="IkuHn_goo6lVUAqrZASD-31" value="Нет" style="text;html=1;align=center;verticalAlign=middle;resizable=0;points=[];autosize=1;strokeColor=none;fillColor=none;fontSize=13;" vertex="1" parent="1">
          <mxGeometry x="295" y="510" width="40" height="20" as="geometry" />
        </mxCell>
        <mxCell id="IkuHn_goo6lVUAqrZASD-32" value="Нет" style="text;html=1;align=center;verticalAlign=middle;resizable=0;points=[];autosize=1;strokeColor=none;fillColor=none;fontSize=13;" vertex="1" parent="1">
          <mxGeometry x="295" y="620" width="40" height="20" as="geometry" />
        </mxCell>
        <mxCell id="IkuHn_goo6lVUAqrZASD-33" value="Нет" style="text;html=1;align=center;verticalAlign=middle;resizable=0;points=[];autosize=1;strokeColor=none;fillColor=none;fontSize=13;" vertex="1" parent="1">
          <mxGeometry x="295" y="730" width="40" height="20" as="geometry" />
        </mxCell>
        <mxCell id="IkuHn_goo6lVUAqrZASD-35" value="" style="endArrow=none;html=1;rounded=0;fontSize=14;exitX=0;exitY=0.5;exitDx=0;exitDy=0;" edge="1" parent="1" source="IkuHn_goo6lVUAqrZASD-20">
          <mxGeometry width="50" height="50" relative="1" as="geometry">
            <mxPoint x="290" y="610" as="sourcePoint" />
            <mxPoint x="80" y="690" as="targetPoint" />
          </mxGeometry>
        </mxCell>
        <mxCell id="IkuHn_goo6lVUAqrZASD-36" value="" style="endArrow=none;html=1;rounded=0;fontSize=14;" edge="1" parent="1">
          <mxGeometry width="50" height="50" relative="1" as="geometry">
            <mxPoint x="80" y="690" as="sourcePoint" />
            <mxPoint x="80" y="310" as="targetPoint" />
          </mxGeometry>
        </mxCell>
        <mxCell id="IkuHn_goo6lVUAqrZASD-37" value="" style="endArrow=classic;html=1;rounded=0;fontSize=14;" edge="1" parent="1">
          <mxGeometry width="50" height="50" relative="1" as="geometry">
            <mxPoint x="80" y="310" as="sourcePoint" />
            <mxPoint x="290" y="310" as="targetPoint" />
          </mxGeometry>
        </mxCell>
        <mxCell id="IkuHn_goo6lVUAqrZASD-38" value="" style="endArrow=none;html=1;rounded=0;fontSize=14;exitX=0.5;exitY=0;exitDx=0;exitDy=0;" edge="1" parent="1" source="IkuHn_goo6lVUAqrZASD-19">
          <mxGeometry width="50" height="50" relative="1" as="geometry">
            <mxPoint x="240" y="520" as="sourcePoint" />
            <mxPoint x="160" y="410" as="targetPoint" />
          </mxGeometry>
        </mxCell>
        <mxCell id="IkuHn_goo6lVUAqrZASD-39" value="" style="endArrow=classic;html=1;rounded=0;fontSize=14;" edge="1" parent="1">
          <mxGeometry width="50" height="50" relative="1" as="geometry">
            <mxPoint x="160" y="410" as="sourcePoint" />
            <mxPoint x="290" y="410" as="targetPoint" />
          </mxGeometry>
        </mxCell>
      </root>
    </mxGraphModel>
  </diagram>
</mxfile>
